HIERARCHY
ROOT Hips
{
	OFFSET 50.450401 -7.063304 84.103500
	CHANNELS 6 Xposition Yposition Zposition Xrotation Yrotation Zrotation
	JOINT spine
	{
		OFFSET 0.000000 -0.342408 5.954376
		CHANNELS 3 Xrotation Yrotation Zrotation
		JOINT spine1
		{
			OFFSET 0.000000 -0.000001 8.856018
			CHANNELS 3 Xrotation Yrotation Zrotation
			JOINT spine2
			{
				OFFSET 0.000000 -0.000001 8.485672
				CHANNELS 3 Xrotation Yrotation Zrotation
				JOINT Neck
				{
					OFFSET 0.000000 -1.038703 21.786301
					CHANNELS 3 Xrotation Yrotation Zrotation
					JOINT Head
					{
						OFFSET 0.000000 -0.000001 6.582199
						CHANNELS 3 Xrotation Yrotation Zrotation
						End Site
						{
							OFFSET 0.000000 5.254357 15.932602
						}
					}
				}
				JOINT RightShoulder
				{
					OFFSET -3.573071 0.497524 9.163864
					CHANNELS 3 Xrotation Yrotation Zrotation
					JOINT RightArm
					{
						OFFSET 0.000000 -0.000002 12.019196
						CHANNELS 3 Xrotation Yrotation Zrotation
						JOINT RightArmRoll
						{
							OFFSET 0.000000 -0.000001 6.067535
							CHANNELS 3 Xrotation Yrotation Zrotation
							JOINT RightForeArm
							{
								OFFSET 0.000000 -0.000003 17.672592
								CHANNELS 3 Xrotation Yrotation Zrotation
								JOINT RightForeArmRoll
								{
									OFFSET 0.000000 -0.000001 6.808716
									CHANNELS 3 Xrotation Yrotation Zrotation
									JOINT RightHand
									{
										OFFSET 0.000000 -0.000002 13.663605
										CHANNELS 3 Xrotation Yrotation Zrotation
										End Site
										{
											OFFSET 0.000000 0.000000 0.100006
										}
									}
								}
							}
						}
					}
				}
				JOINT LeftShoulder
				{
					OFFSET 3.573071 0.497524 9.163864
					CHANNELS 3 Xrotation Yrotation Zrotation
					JOINT LeftArm
					{
						OFFSET 0.000000 -0.000002 12.019196
						CHANNELS 3 Xrotation Yrotation Zrotation
						JOINT LeftArmRoll
						{
							OFFSET 0.000000 -0.000001 6.067535
							CHANNELS 3 Xrotation Yrotation Zrotation
							JOINT LeftForeArm
							{
								OFFSET 0.000000 -0.000003 17.672592
								CHANNELS 3 Xrotation Yrotation Zrotation
								JOINT LeftForeArmRoll
								{
									OFFSET 0.000000 -0.000001 6.808716
									CHANNELS 3 Xrotation Yrotation Zrotation
									JOINT LeftHand
									{
										OFFSET 0.000000 -0.000002 13.663605
										CHANNELS 3 Xrotation Yrotation Zrotation
										End Site
										{
											OFFSET 0.000000 0.000000 0.100006
										}
									}
								}
							}
						}
					}
				}
			}
		}
	}
	JOINT RightUpLeg
	{
		OFFSET -5.277740 0.811859 -0.967796
		CHANNELS 3 Xrotation Yrotation Zrotation
		JOINT RightUpLegRoll
		{
			OFFSET 0.000000 -0.000003 16.021400
			CHANNELS 3 Xrotation Yrotation Zrotation
			JOINT RightLeg
			{
				OFFSET 0.000000 0.000003 -19.840103
				CHANNELS 3 Xrotation Yrotation Zrotation
				JOINT RightLegRoll
				{
					OFFSET 0.000000 -0.000003 19.904999
					CHANNELS 3 Xrotation Yrotation Zrotation
					JOINT RightFoot
					{
						OFFSET 0.000000 -0.000003 16.567497
						CHANNELS 3 Xrotation Yrotation Zrotation
						JOINT RightToeBase
						{
							OFFSET 0.000000 -0.000002 13.849602
							CHANNELS 3 Xrotation Yrotation Zrotation
							End Site
							{
								OFFSET 0.005871 0.773116 6.707275
							}
						}
					}
				}
			}
		}
	}
	JOINT LeftUpLeg
	{
		OFFSET 5.277740 0.811859 -0.967796
		CHANNELS 3 Xrotation Yrotation Zrotation
		JOINT LeftUpLegRoll
		{
			OFFSET 0.000000 -0.000003 16.021500
			CHANNELS 3 Xrotation Yrotation Zrotation
			JOINT LeftLeg
			{
				OFFSET 0.000000 -0.000003 19.840004
				CHANNELS 3 Xrotation Yrotation Zrotation
				JOINT LeftLegRoll
				{
					OFFSET 0.000000 -0.000003 20.089005
					CHANNELS 3 Xrotation Yrotation Zrotation
					JOINT LeftFoot
					{
						OFFSET 0.000000 -0.000002 16.383499
						CHANNELS 3 Xrotation Yrotation Zrotation
						JOINT LeftToeBase
						{
							OFFSET 0.000000 -0.000002 13.849594
							CHANNELS 3 Xrotation Yrotation Zrotation
							End Site
							{
								OFFSET -0.026310 0.773116 6.707275
							}
						}
					}
				}
			}
		}
	}
}
MOTION
Frames: 6
Frame Time: 0.041667
51.580997 -7.538022 83.592690 2.845154 1.742469 95.214811 -2.054431 0.947646 0.008988 -0.115000 1.894876 0.042368 1.530447 1.895264 0.019348 -23.936087 34.645189 0.045694 19.091905 -30.547263 -8.345712 9.500810 -50.542331 12.784592 93.115785 -7.889035 83.104899 -0.000001 -0.000001 -0.000002 -0.029058 3.637790 -1.990807 0.000010 0.000006 -3.011601 -4.999730 -7.999895 0.000010 -72.665754 75.452738 79.775209 -87.437234 128.638690 86.238918 -0.000000 -0.000000 0.000002 -0.029077 -3.652862 1.990657 0.000008 -0.000011 3.011610 -5.000191 7.999930 -0.000006 -3.262499 -179.619632 0.661325 -179.999991 0.000005 -1.036996 167.375370 1.157337 -0.419800 -0.000001 -0.000008 0.552875 73.777716 6.796119 2.052696 25.456653 -7.355631 -0.000028 -15.095029 182.147362 3.125228 -0.000003 -0.000005 -0.814258 -12.586087 1.059060 0.520267 -0.000000 -0.000005 -0.102347 68.635745 -6.876258 -2.203766 25.456752 7.355599 -0.000012 
51.559902 -7.525962 83.588692 2.848486 1.747180 95.189580 -2.053280 0.946019 0.009414 -0.114228 1.891616 0.042862 1.531225 1.892005 0.019494 -23.803377 34.518454 -0.016371 18.993752 -30.456862 -8.351190 9.517315 -50.714766 12.769921 93.081579 -7.982333 83.120267 -0.000001 0.000001 -0.000003 -0.029061 3.637801 -1.990810 0.000009 0.000005 -3.011601 -4.999729 -7.999897 0.000007 -72.242829 75.428634 79.339539 -87.320335 128.490284 86.132381 -0.000002 0.000000 0.000001 -0.029080 -3.653341 1.990658 0.000008 -0.000012 3.011608 -5.000196 7.999930 -0.000004 -3.274465 -179.603635 0.669229 -179.999991 0.000005 -1.035998 167.373827 1.149518 -0.421517 0.000002 -0.000008 0.553793 73.792373 6.796085 2.052802 25.456649 -7.355631 -0.000028 -15.095276 182.152170 3.129269 -0.000004 -0.000005 -0.813699 -12.562680 1.058932 0.518723 -0.000000 -0.000005 -0.102059 68.626735 -6.876406 -2.203655 25.456752 7.355599 -0.000012 
51.548904 -7.516325 83.588493 2.851891 1.751009 95.164384 -2.052128 0.944471 0.009819 -0.113431 1.888506 0.043316 1.532023 1.888915 0.019604 -23.666884 34.391601 -0.079265 18.893599 -30.366922 -8.357043 9.535461 -50.889079 12.756860 93.045823 -8.075689 83.135860 -0.000001 0.000000 -0.000001 -0.029066 3.637811 -1.990816 0.000009 0.000005 -3.011598 -4.999729 -7.999897 0.000012 -71.819371 75.403977 78.903165 -87.202350 128.341987 86.024949 -0.000001 -0.000000 0.000000 -0.029077 -3.653782 1.990654 0.000007 -0.000011 3.011610 -5.000192 7.999930 -0.000006 -3.285240 -179.586683 0.677391 -179.999991 0.000005 -1.035001 167.372652 1.141714 -0.422243 0.000000 -0.000007 0.554643 73.806812 6.796007 2.052715 25.456649 -7.355631 -0.000028 -15.094120 182.157020 3.132861 -0.000004 -0.000004 -0.813154 -12.538677 1.059079 0.517181 -0.000000 -0.000005 -0.101795 68.617808 -6.876524 -2.203531 25.456754 7.355598 -0.000012 
51.556503 -7.523542 83.576691 2.855439 1.753889 95.139235 -2.050960 0.942967 0.010205 -0.112531 1.885497 0.043742 1.532920 1.885906 0.019695 -23.527328 34.265345 -0.142559 18.792483 -30.277887 -8.362674 9.554463 -51.064140 12.744709 93.009247 -8.168470 83.152424 -0.000001 0.000000 -0.000001 -0.029070 3.637820 -1.990818 0.000008 0.000006 -3.011605 -4.999729 -7.999895 0.000010 -71.397190 75.378910 78.468000 -87.083457 128.194359 85.916758 0.000002 -0.000001 -0.000001 -0.029075 -3.654182 1.990656 0.000006 -0.000010 3.011611 -5.000194 7.999928 -0.000004 -3.295020 -179.570714 0.685928 -179.999991 0.000005 -1.035001 167.371682 1.133899 -0.423974 -0.000001 -0.000008 0.555416 73.820603 6.795949 2.052772 25.456653 -7.355631 -0.000028 -15.091462 182.160913 3.136290 -0.000004 -0.000004 -0.812626 -12.514074 1.059522 0.515658 -0.000000 -0.000005 -0.101545 68.609100 -6.876617 -2.203492 25.456752 7.355599 -0.000012 
51.537800 -7.512023 83.579796 2.859135 1.755843 95.114120 -2.049769 0.941468 0.010573 -0.111451 1.882487 0.044146 1.533999 1.882906 0.019785 -23.385997 34.140188 -0.205353 18.691455 -30.189788 -8.367880 9.573509 -51.238720 12.732711 92.972439 -8.260374 83.169294 -0.000001 0.000001 -0.000000 -0.029073 3.637831 -1.990815 0.000008 0.000006 -3.011602 -4.999729 -7.999894 0.000010 -70.978527 75.353331 78.036373 -86.964100 128.047701 85.808274 -0.000002 -0.000000 0.000001 -0.029076 -3.654520 1.990656 0.000010 -0.000012 3.011608 -5.000193 7.999930 -0.000004 -3.304038 -179.554745 0.694785 -179.999991 0.000005 -1.034004 167.370821 1.126083 -0.424709 -0.000001 -0.000008 0.556104 73.833723 6.795864 2.052965 25.456646 -7.355631 -0.000028 -15.087509 182.165776 3.139039 -0.000005 -0.000005 -0.812119 -12.489274 1.060288 0.514179 -0.000000 -0.000005 -0.101303 68.600610 -6.876722 -2.203539 25.456750 7.355599 -0.000012 
51.528999 -7.502985 83.587402 2.863014 1.756826 95.089156 -2.048515 0.939941 0.010924 -0.110116 1.879426 0.044538 1.535337 1.879845 0.019892 -23.243890 34.017006 -0.267021 18.591411 -30.102969 -8.372301 9.591828 -51.411756 12.720204 92.936096 -8.350957 83.186698 -0.000001 0.000000 -0.000001 -0.029078 3.637841 -1.990826 0.000008 0.000006 -3.011603 -4.999730 -7.999896 0.000012 -70.565778 75.327260 77.610770 -86.844564 127.902396 85.699797 -0.000004 0.000000 0.000000 -0.029081 -3.654771 1.990655 0.000011 -0.000010 3.011612 -5.000192 7.999929 -0.000005 -3.312474 -179.537765 0.703903 -179.999991 0.000005 -1.033006 167.369851 1.118281 -0.425440 -0.000001 -0.000008 0.556699 73.845990 6.795794 2.052912 25.456656 -7.355632 -0.000028 -15.082142 182.169697 3.141631 -0.000003 -0.000004 -0.811636 -12.464573 1.061414 0.512772 -0.000000 -0.000005 -0.101060 68.592325 -6.876839 -2.203478 25.456750 7.355600 -0.000012 
